<svg width="331" height="54" viewBox="0 0 331 54" fill="none" xmlns="http://www.w3.org/2000/svg">
<path d="M27.5849 53.9425C23.2802 53.9425 19.4478 53.3555 16.0877 52.1815C12.7276 51.021 9.88707 49.3139 7.56605 47.0604C5.24503 44.8203 3.47727 42.081 2.26278 38.8423C1.0483 35.6037 0.441051 31.9197 0.441051 27.7905C0.441051 23.7152 1.0483 20.0178 2.26278 16.6982C3.49077 13.3786 5.27876 10.5312 7.62678 8.15625C9.97479 5.76776 12.8423 3.93253 16.2294 2.65057C19.63 1.36861 23.5028 0.727625 27.848 0.727625C31.8693 0.727625 35.4588 1.31463 38.6165 2.48864C41.7876 3.66264 44.473 5.33594 46.6726 7.50852C48.8857 9.66761 50.5657 12.2383 51.7127 15.2205C52.8732 18.1893 53.4467 21.4751 53.4332 25.0781C53.4467 27.5611 53.2308 29.8416 52.7855 31.9197C52.3402 33.9979 51.6385 35.8129 50.6804 37.3647C49.7358 38.9031 48.4943 40.1243 46.956 41.0284C45.4176 41.919 43.5554 42.4251 41.3693 42.5465C39.804 42.668 38.5355 42.5533 37.5639 42.2024C36.5923 41.8516 35.8501 41.332 35.3374 40.6438C34.8381 39.9421 34.5142 39.1257 34.3658 38.1946H34.1229C33.799 39.0043 33.1648 39.7397 32.2202 40.4009C31.2756 41.0487 30.1218 41.5547 28.7589 41.919C27.4094 42.2699 25.9723 42.3981 24.4474 42.3036C22.8551 42.2092 21.3438 41.8381 19.9134 41.1903C18.4964 40.5426 17.2347 39.6048 16.1282 38.3768C15.0352 37.1488 14.1715 35.6307 13.5373 33.8224C12.9165 32.0142 12.5994 29.9226 12.5859 27.5476C12.5994 25.1996 12.93 23.1552 13.5778 21.4144C14.239 19.6736 15.1094 18.2095 16.1889 17.022C17.282 15.8345 18.4964 14.9034 19.8324 14.2287C21.1683 13.554 22.511 13.1222 23.8604 12.9332C25.3853 12.7038 26.8292 12.7038 28.1921 12.9332C29.555 13.1626 30.7021 13.5337 31.6332 14.0465C32.5778 14.5593 33.1648 15.1126 33.3942 15.7063H33.6776V13.4393H40.0131V33.195C40.0266 34.1261 40.2358 34.848 40.6406 35.3608C41.0455 35.8736 41.592 36.13 42.2802 36.13C43.2113 36.13 43.9872 35.7184 44.608 34.8952C45.2422 34.0721 45.7145 32.8104 46.0249 31.1101C46.3487 29.4098 46.5107 27.244 46.5107 24.6126C46.5107 22.0756 46.1733 19.8491 45.4986 17.9329C44.8374 16.0032 43.9063 14.3636 42.7053 13.0142C41.5178 11.6513 40.1346 10.5447 38.5558 9.6946C36.9769 8.84446 35.2631 8.22372 33.4144 7.83239C31.5792 7.44105 29.69 7.24538 27.7468 7.24538C24.3867 7.24538 21.4517 7.75817 18.9418 8.78373C16.4318 9.79581 14.3402 11.2195 12.6669 13.0547C10.9936 14.8899 9.73864 17.0423 8.90199 19.5117C8.07884 21.9677 7.66051 24.6463 7.64702 27.5476C7.66051 30.7457 8.10582 33.5795 8.98296 36.049C9.87358 38.505 11.1825 40.5696 12.9098 42.2429C14.6371 43.9162 16.7692 45.1847 19.3061 46.0483C21.843 46.9119 24.7578 47.3438 28.0504 47.3438C29.6023 47.3438 31.1204 47.229 32.6048 46.9996C34.0891 46.7837 35.4318 46.5138 36.6328 46.19C37.8338 45.8796 38.7987 45.576 39.5273 45.2791L41.5312 51.1491C40.6811 51.6349 39.5273 52.087 38.07 52.5053C36.6261 52.9371 34.9933 53.2813 33.1715 53.5376C31.3633 53.8075 29.5011 53.9425 27.5849 53.9425ZM26.6538 35.6442C28.3001 35.6442 29.609 35.3271 30.5806 34.6928C31.5657 34.0586 32.2674 33.1207 32.6857 31.8793C33.1175 30.6243 33.32 29.0792 33.293 27.244C33.2795 25.6246 33.0703 24.255 32.6655 23.1349C32.2741 22.0014 31.5927 21.1445 30.6211 20.5643C29.663 19.9705 28.3271 19.6737 26.6133 19.6737C25.1154 19.6737 23.8402 19.9908 22.7876 20.625C21.7486 21.2592 20.9524 22.1499 20.3991 23.2969C19.8594 24.4304 19.5827 25.7663 19.5692 27.3047C19.5827 28.7351 19.8121 30.0913 20.2575 31.3732C20.7028 32.6417 21.4382 33.674 22.4638 34.4702C23.4893 35.2528 24.886 35.6442 26.6538 35.6442ZM59.1666 42V10.9091H67.3847V16.3945H67.749C68.3968 14.5728 69.4763 13.1357 70.9877 12.0831C72.499 11.0305 74.3073 10.5043 76.4124 10.5043C78.5445 10.5043 80.3595 11.0373 81.8573 12.1033C83.3552 13.1559 84.3538 14.5863 84.8531 16.3945H85.1769C85.8112 14.6133 86.9582 13.1896 88.618 12.1236C90.2913 11.044 92.2682 10.5043 94.5487 10.5043C97.45 10.5043 99.8048 11.4286 101.613 13.2773C103.435 15.1126 104.346 17.717 104.346 21.0906V42H95.743V22.7908C95.743 21.0636 95.2842 19.7681 94.3666 18.9045C93.449 18.0408 92.3019 17.609 90.9255 17.609C89.3602 17.609 88.1389 18.1083 87.2618 19.1069C86.3847 20.092 85.9461 21.3942 85.9461 23.0135V42H77.5864V22.6087C77.5864 21.0838 77.1478 19.8693 76.2707 18.9652C75.407 18.0611 74.2668 17.609 72.8499 17.609C71.8918 17.609 71.0281 17.8519 70.259 18.3377C69.5033 18.81 68.9028 19.478 68.4575 20.3416C68.0122 21.1918 67.7895 22.1903 67.7895 23.3374V42H59.1666ZM120.023 42.587C118.039 42.587 116.271 42.2429 114.719 41.5547C113.168 40.853 111.94 39.8207 111.035 38.4577C110.145 37.0813 109.699 35.3675 109.699 33.3164C109.699 31.5891 110.017 30.1385 110.651 28.9645C111.285 27.7905 112.149 26.8459 113.242 26.1307C114.335 25.4155 115.576 24.8757 116.966 24.5114C118.37 24.147 119.84 23.8906 121.379 23.7422C123.187 23.5533 124.644 23.3778 125.751 23.2159C126.858 23.0405 127.66 22.7841 128.16 22.4467C128.659 22.1094 128.909 21.6101 128.909 20.9489V20.8274C128.909 19.5455 128.504 18.5536 127.694 17.8519C126.898 17.1502 125.764 16.7994 124.294 16.7994C122.742 16.7994 121.507 17.1435 120.589 17.8317C119.672 18.5064 119.065 19.3565 118.768 20.3821L110.793 19.7344C111.197 17.8452 111.994 16.2124 113.181 14.8359C114.369 13.446 115.9 12.38 117.776 11.6378C119.665 10.8821 121.851 10.5043 124.334 10.5043C126.061 10.5043 127.714 10.7067 129.293 11.1115C130.886 11.5163 132.296 12.1438 133.524 12.994C134.765 13.8441 135.744 14.9371 136.459 16.2731C137.174 17.5955 137.532 19.1811 137.532 21.0298V42H129.354V37.6886H129.111C128.612 38.6602 127.944 39.517 127.107 40.2592C126.271 40.9879 125.265 41.5614 124.091 41.9798C122.917 42.3846 121.561 42.587 120.023 42.587ZM122.492 36.636C123.761 36.636 124.881 36.3864 125.852 35.8871C126.824 35.3743 127.586 34.6861 128.139 33.8224C128.693 32.9588 128.969 31.9805 128.969 30.8874V27.5881C128.699 27.7635 128.328 27.9254 127.856 28.0739C127.397 28.2088 126.878 28.337 126.297 28.4585C125.717 28.5664 125.137 28.6676 124.557 28.7621C123.976 28.843 123.45 28.9173 122.978 28.9847C121.966 29.1332 121.082 29.3693 120.326 29.6932C119.571 30.017 118.984 30.4556 118.565 31.0089C118.147 31.5487 117.938 32.2234 117.938 33.033C117.938 34.207 118.363 35.1044 119.213 35.7251C120.077 36.3324 121.17 36.636 122.492 36.636ZM144.221 42V10.9091H152.581V16.3338H152.905C153.472 14.4041 154.423 12.9467 155.759 11.9616C157.095 10.9631 158.633 10.4638 160.374 10.4638C160.806 10.4638 161.271 10.4908 161.771 10.5447C162.27 10.5987 162.709 10.6729 163.086 10.7674V18.4187C162.682 18.2972 162.122 18.1893 161.406 18.0948C160.691 18.0004 160.037 17.9531 159.443 17.9531C158.174 17.9531 157.041 18.2298 156.042 18.783C155.057 19.3228 154.275 20.0785 153.694 21.0501C153.128 22.0217 152.844 23.1417 152.844 24.4102V42H144.221ZM193.413 19.7749L185.519 20.2607C185.384 19.5859 185.094 18.9787 184.649 18.4389C184.203 17.8857 183.616 17.4471 182.888 17.1232C182.172 16.7859 181.316 16.6172 180.317 16.6172C178.981 16.6172 177.854 16.9006 176.937 17.4673C176.019 18.0206 175.56 18.7628 175.56 19.6939C175.56 20.4361 175.857 21.0636 176.451 21.5763C177.045 22.0891 178.063 22.5007 179.507 22.8111L185.134 23.9446C188.157 24.5653 190.411 25.5639 191.895 26.9403C193.379 28.3168 194.122 30.125 194.122 32.3651C194.122 34.4027 193.521 36.1907 192.32 37.729C191.133 39.2674 189.5 40.4684 187.422 41.332C185.357 42.1822 182.975 42.6072 180.276 42.6072C176.161 42.6072 172.882 41.7504 170.439 40.0366C168.01 38.3093 166.586 35.9613 166.168 32.9925L174.649 32.5472C174.906 33.8022 175.526 34.7603 176.512 35.4215C177.497 36.0692 178.758 36.3931 180.297 36.3931C181.808 36.3931 183.023 36.103 183.94 35.5227C184.871 34.929 185.344 34.1665 185.357 33.2354C185.344 32.4528 185.013 31.8118 184.365 31.3125C183.718 30.7997 182.719 30.4084 181.369 30.1385L175.985 29.0657C172.949 28.4585 170.689 27.4059 169.204 25.908C167.733 24.4102 166.998 22.5007 166.998 20.1797C166.998 18.1825 167.538 16.462 168.617 15.0181C169.71 13.5742 171.242 12.4609 173.212 11.6783C175.196 10.8956 177.517 10.5043 180.175 10.5043C184.102 10.5043 187.192 11.3342 189.446 12.994C191.713 14.6538 193.035 16.9141 193.413 19.7749ZM211.008 42.506C208.647 42.506 206.508 41.8988 204.592 40.6843C202.689 39.4563 201.177 37.6548 200.057 35.2798C198.951 32.8913 198.398 29.9631 198.398 26.495C198.398 22.9325 198.971 19.9705 200.118 17.609C201.265 15.234 202.79 13.4595 204.693 12.2855C206.609 11.098 208.707 10.5043 210.988 10.5043C212.729 10.5043 214.179 10.8011 215.34 11.3949C216.514 11.9751 217.458 12.7038 218.174 13.581C218.902 14.4446 219.456 15.2947 219.833 16.1314H220.097V0.545453H228.699V42H220.198V37.0206H219.833C219.429 37.8842 218.855 38.7411 218.113 39.5913C217.384 40.4279 216.433 41.1229 215.259 41.6761C214.098 42.2294 212.681 42.506 211.008 42.506ZM213.741 35.6442C215.131 35.6442 216.305 35.2663 217.263 34.5107C218.234 33.7415 218.976 32.6687 219.489 31.2923C220.016 29.9158 220.279 28.3033 220.279 26.4545C220.279 24.6058 220.022 23 219.509 21.6371C218.997 20.2741 218.255 19.2216 217.283 18.4794C216.311 17.7372 215.131 17.3661 213.741 17.3661C212.324 17.3661 211.13 17.7507 210.158 18.5199C209.186 19.2891 208.451 20.3551 207.952 21.718C207.452 23.081 207.203 24.6598 207.203 26.4545C207.203 28.2628 207.452 29.8619 207.952 31.2518C208.464 32.6282 209.2 33.7077 210.158 34.4904C211.13 35.2596 212.324 35.6442 213.741 35.6442ZM249.958 42.6072C246.76 42.6072 244.007 41.9595 241.699 40.6641C239.405 39.3551 237.637 37.5064 236.396 35.1179C235.154 32.7159 234.534 29.8754 234.534 26.5962C234.534 23.3981 235.154 20.5913 236.396 18.1758C237.637 15.7603 239.385 13.8778 241.638 12.5284C243.906 11.179 246.564 10.5043 249.614 10.5043C251.665 10.5043 253.574 10.8349 255.342 11.4961C257.123 12.1438 258.675 13.1222 259.998 14.4311C261.333 15.7401 262.373 17.3864 263.115 19.37C263.857 21.3402 264.228 23.6477 264.228 26.2926V28.6609H237.975V23.3171H256.111C256.111 22.0756 255.841 20.9759 255.301 20.0178C254.762 19.0597 254.013 18.3107 253.055 17.771C252.11 17.2177 251.01 16.9411 249.755 16.9411C248.446 16.9411 247.286 17.2447 246.274 17.8519C245.275 18.4457 244.493 19.2486 243.926 20.2607C243.359 21.2592 243.069 22.3725 243.055 23.6005V28.6811C243.055 30.2195 243.339 31.5487 243.906 32.6687C244.486 33.7887 245.302 34.6523 246.355 35.2596C247.407 35.8668 248.656 36.1705 250.099 36.1705C251.058 36.1705 251.935 36.0355 252.731 35.7656C253.527 35.4957 254.208 35.0909 254.775 34.5511C255.342 34.0114 255.774 33.3501 256.071 32.5675L264.046 33.0938C263.641 35.0099 262.811 36.6832 261.556 38.1136C260.315 39.5305 258.709 40.6371 256.739 41.4332C254.782 42.2159 252.522 42.6072 249.958 42.6072ZM298.006 10.9091L287.136 42H277.42L266.551 10.9091H275.659L282.116 33.1545H282.44L288.877 10.9091H298.006ZM309.625 10.9091L315.333 21.7788L321.182 10.9091H330.028L321.021 26.4545L330.271 42H321.466L315.333 31.2518L309.301 42H300.394L309.625 26.4545L300.718 10.9091H309.625Z" fill="white"/>
</svg>
