<svg width="239" height="45" viewBox="0 0 239 45" fill="none" xmlns="http://www.w3.org/2000/svg">
<path d="M17.2173 12.9091V16.9574H0.457386V12.9091H17.2173ZM5.47727 44V8.6179C5.47727 6.83665 5.8956 5.35227 6.73224 4.16477C7.56889 2.97727 8.65518 2.08664 9.99112 1.49289C11.3271 0.899145 12.7372 0.60227 14.2216 0.60227C15.3956 0.60227 16.3537 0.696731 17.0959 0.885652C17.8381 1.07457 18.3913 1.25 18.7557 1.41193L17.3793 5.54119C17.1364 5.46023 16.799 5.35902 16.3672 5.23757C15.9489 5.11612 15.3956 5.05539 14.7074 5.05539C13.1286 5.05539 11.9883 5.45348 11.2866 6.24964C10.5984 7.04581 10.2543 8.21307 10.2543 9.75142V44H5.47727ZM35.2626 44.6477C32.4558 44.6477 29.9931 43.9798 27.8745 42.6438C25.7694 41.3079 24.123 39.4389 22.9355 37.0369C21.7615 34.6349 21.1745 31.8281 21.1745 28.6165C21.1745 25.3778 21.7615 22.5508 22.9355 20.1353C24.123 17.7198 25.7694 15.8441 27.8745 14.5082C29.9931 13.1722 32.4558 12.5043 35.2626 12.5043C38.0694 12.5043 40.5254 13.1722 42.6305 14.5082C44.7491 15.8441 46.3954 17.7198 47.5694 20.1353C48.7569 22.5508 49.3507 25.3778 49.3507 28.6165C49.3507 31.8281 48.7569 34.6349 47.5694 37.0369C46.3954 39.4389 44.7491 41.3079 42.6305 42.6438C40.5254 43.9798 38.0694 44.6477 35.2626 44.6477ZM35.2626 40.3565C37.3947 40.3565 39.149 39.81 40.5254 38.717C41.9018 37.6239 42.9206 36.1868 43.5819 34.4055C44.2431 32.6243 44.5737 30.6946 44.5737 28.6165C44.5737 26.5384 44.2431 24.6019 43.5819 22.8072C42.9206 21.0124 41.9018 19.5618 40.5254 18.4553C39.149 17.3487 37.3947 16.7955 35.2626 16.7955C33.1305 16.7955 31.3762 17.3487 29.9998 18.4553C28.6234 19.5618 27.6046 21.0124 26.9434 22.8072C26.2821 24.6019 25.9515 26.5384 25.9515 28.6165C25.9515 30.6946 26.2821 32.6243 26.9434 34.4055C27.6046 36.1868 28.6234 37.6239 29.9998 38.717C31.3762 39.81 33.1305 40.3565 35.2626 40.3565ZM61.4197 2.54545V44H56.6427V2.54545H61.4197ZM74.946 2.54545V44H70.169V2.54545H74.946ZM96.3261 44.6477C93.5193 44.6477 91.0566 43.9798 88.9379 42.6438C86.8328 41.3079 85.1865 39.4389 83.999 37.0369C82.825 34.6349 82.238 31.8281 82.238 28.6165C82.238 25.3778 82.825 22.5508 83.999 20.1353C85.1865 17.7198 86.8328 15.8441 88.9379 14.5082C91.0566 13.1722 93.5193 12.5043 96.3261 12.5043C99.1329 12.5043 101.589 13.1722 103.694 14.5082C105.813 15.8441 107.459 17.7198 108.633 20.1353C109.82 22.5508 110.414 25.3778 110.414 28.6165C110.414 31.8281 109.82 34.6349 108.633 37.0369C107.459 39.4389 105.813 41.3079 103.694 42.6438C101.589 43.9798 99.1329 44.6477 96.3261 44.6477ZM96.3261 40.3565C98.4582 40.3565 100.212 39.81 101.589 38.717C102.965 37.6239 103.984 36.1868 104.645 34.4055C105.307 32.6243 105.637 30.6946 105.637 28.6165C105.637 26.5384 105.307 24.6019 104.645 22.8072C103.984 21.0124 102.965 19.5618 101.589 18.4553C100.212 17.3487 98.4582 16.7955 96.3261 16.7955C94.194 16.7955 92.4397 17.3487 91.0633 18.4553C89.6869 19.5618 88.6681 21.0124 88.0068 22.8072C87.3456 24.6019 87.015 26.5384 87.015 28.6165C87.015 30.6946 87.3456 32.6243 88.0068 34.4055C88.6681 36.1868 89.6869 37.6239 91.0633 38.717C92.4397 39.81 94.194 40.3565 96.3261 40.3565ZM123.693 44L114.22 12.9091H119.239L125.96 36.7131H126.283L132.923 12.9091H138.024L144.582 36.6321H144.906L151.626 12.9091H156.646L147.173 44H142.477L135.676 20.1151H135.19L128.389 44H123.693ZM174.939 44.6477C171.943 44.6477 169.359 43.9865 167.186 42.6641C165.027 41.3281 163.361 39.4659 162.187 37.0774C161.026 34.6754 160.446 31.8821 160.446 28.6974C160.446 25.5128 161.026 22.706 162.187 20.277C163.361 17.8345 164.994 15.9318 167.085 14.5689C169.19 13.1925 171.646 12.5043 174.453 12.5043C176.072 12.5043 177.672 12.7741 179.25 13.3139C180.829 13.8537 182.266 14.7308 183.562 15.9453C184.857 17.1463 185.89 18.7386 186.659 20.7223C187.428 22.706 187.812 25.1484 187.812 28.0497V30.0739H163.847V25.9446H182.955C182.955 24.1903 182.604 22.625 181.902 21.2486C181.214 19.8722 180.229 18.7859 178.947 17.9897C177.678 17.1935 176.18 16.7955 174.453 16.7955C172.55 16.7955 170.904 17.2678 169.514 18.2124C168.138 19.1435 167.078 20.358 166.336 21.8558C165.594 23.3537 165.223 24.9595 165.223 26.6733V29.4261C165.223 31.7741 165.628 33.7646 166.438 35.3974C167.261 37.0167 168.401 38.2514 169.858 39.1016C171.316 39.9382 173.009 40.3565 174.939 40.3565C176.194 40.3565 177.327 40.1811 178.339 39.8303C179.365 39.4659 180.249 38.9261 180.991 38.2109C181.733 37.4822 182.307 36.5781 182.712 35.4986L187.327 36.794C186.841 38.3594 186.025 39.7358 184.877 40.9233C183.73 42.0973 182.314 43.0149 180.627 43.6761C178.94 44.3239 177.044 44.6477 174.939 44.6477ZM195.079 44V12.9091H199.694V17.6051H200.018C200.585 16.0668 201.61 14.8185 203.095 13.8604C204.579 12.9023 206.252 12.4233 208.115 12.4233C208.466 12.4233 208.904 12.43 209.43 12.4435C209.957 12.457 210.355 12.4773 210.625 12.5043V17.3622C210.463 17.3217 210.092 17.261 209.511 17.18C208.945 17.0856 208.344 17.0384 207.71 17.0384C206.199 17.0384 204.849 17.3555 203.662 17.9897C202.488 18.6104 201.556 19.4741 200.868 20.5806C200.194 21.6736 199.856 22.9219 199.856 24.3253V44H195.079ZM238.31 19.8722L234.019 21.0866C233.749 20.3714 233.351 19.6765 232.824 19.0018C232.312 18.3136 231.61 17.7468 230.719 17.3015C229.829 16.8562 228.688 16.6335 227.299 16.6335C225.396 16.6335 223.81 17.0721 222.542 17.9492C221.287 18.8129 220.659 19.9126 220.659 21.2486C220.659 22.4361 221.091 23.3739 221.955 24.0621C222.818 24.7504 224.168 25.3239 226.003 25.7827L230.618 26.9162C233.398 27.5909 235.469 28.6232 236.832 30.0131C238.195 31.3896 238.877 33.1641 238.877 35.3366C238.877 37.1179 238.364 38.7102 237.338 40.1136C236.326 41.517 234.909 42.6236 233.088 43.4332C231.266 44.2429 229.147 44.6477 226.732 44.6477C223.561 44.6477 220.936 43.9595 218.858 42.5831C216.78 41.2067 215.464 39.196 214.911 36.5511L219.445 35.4176C219.877 37.0909 220.693 38.3459 221.894 39.1825C223.109 40.0192 224.694 40.4375 226.651 40.4375C228.877 40.4375 230.645 39.9652 231.954 39.0206C233.277 38.0625 233.938 36.9155 233.938 35.5795C233.938 34.5 233.56 33.5959 232.804 32.8672C232.049 32.125 230.888 31.5717 229.323 31.2074L224.141 29.9929C221.294 29.3182 219.202 28.2724 217.866 26.8555C216.544 25.4251 215.882 23.6371 215.882 21.4915C215.882 19.7372 216.375 18.1854 217.36 16.8359C218.359 15.4865 219.715 14.4272 221.429 13.658C223.156 12.8888 225.112 12.5043 227.299 12.5043C230.375 12.5043 232.791 13.179 234.545 14.5284C236.313 15.8778 237.568 17.6591 238.31 19.8722Z" fill="#AAAAAA"/>
</svg>
