<svg width="477" height="45" viewBox="0 0 477 45" fill="none" xmlns="http://www.w3.org/2000/svg">
<path d="M5.03977 2.54545V44H0.0198867V2.54545H5.03977ZM35.2654 2.54545V44H30.4884V2.54545H35.2654ZM44.0147 44V12.9091H48.7917V44H44.0147ZM46.4437 7.72727C45.5126 7.72727 44.7097 7.41016 44.035 6.77592C43.3738 6.14169 43.0431 5.37926 43.0431 4.48864C43.0431 3.59801 43.3738 2.83558 44.035 2.20135C44.7097 1.56712 45.5126 1.25 46.4437 1.25C47.3748 1.25 48.171 1.56712 48.8322 2.20135C49.5069 2.83558 49.8443 3.59801 49.8443 4.48864C49.8443 5.37926 49.5069 6.14169 48.8322 6.77592C48.171 7.41016 47.3748 7.72727 46.4437 7.72727ZM61.9942 32.6648L61.9133 26.7543H62.8849L76.4871 12.9091H82.3976L67.9047 27.5639H67.4999L61.9942 32.6648ZM57.5411 44V2.54545H62.3181V44H57.5411ZM77.2968 44L65.1519 28.6165L68.5525 25.2969L83.3692 44H77.2968ZM100.301 44.6477C97.3055 44.6477 94.7213 43.9865 92.5487 42.6641C90.3896 41.3281 88.7231 39.4659 87.5491 37.0774C86.3886 34.6754 85.8083 31.8821 85.8083 28.6974C85.8083 25.5128 86.3886 22.706 87.5491 20.277C88.7231 17.8345 90.3559 15.9318 92.4475 14.5689C94.5526 13.1925 97.0086 12.5043 99.8154 12.5043C101.435 12.5043 103.034 12.7741 104.613 13.3139C106.191 13.8537 107.629 14.7308 108.924 15.9453C110.22 17.1463 111.252 18.7386 112.021 20.7223C112.79 22.706 113.175 25.1484 113.175 28.0497V30.0739H89.2089V25.9446H108.317C108.317 24.1903 107.966 22.625 107.264 21.2486C106.576 19.8722 105.591 18.7859 104.309 17.9897C103.041 17.1935 101.543 16.7955 99.8154 16.7955C97.9127 16.7955 96.2664 17.2678 94.8765 18.2124C93.5001 19.1435 92.4408 20.358 91.6986 21.8558C90.9564 23.3537 90.5853 24.9595 90.5853 26.6733V29.4261C90.5853 31.7741 90.9901 33.7646 91.7998 35.3974C92.623 37.0167 93.7632 38.2514 95.2206 39.1016C96.678 39.9382 98.3715 40.3565 100.301 40.3565C101.556 40.3565 102.69 40.1811 103.702 39.8303C104.727 39.4659 105.611 38.9261 106.353 38.2109C107.096 37.4822 107.669 36.5781 108.074 35.4986L112.689 36.794C112.203 38.3594 111.387 39.7358 110.24 40.9233C109.093 42.0973 107.676 43.0149 105.989 43.6761C104.302 44.3239 102.406 44.6477 100.301 44.6477ZM149.994 12.9091V16.9574H133.882V12.9091H149.994ZM138.578 5.46023H143.355V35.0938C143.355 36.4432 143.551 37.4553 143.942 38.13C144.347 38.7912 144.859 39.2365 145.48 39.4659C146.114 39.6818 146.782 39.7898 147.484 39.7898C148.01 39.7898 148.442 39.7628 148.78 39.7088C149.117 39.6413 149.387 39.5874 149.589 39.5469L150.561 43.8381C150.237 43.9595 149.785 44.081 149.205 44.2024C148.624 44.3374 147.889 44.4048 146.998 44.4048C145.649 44.4048 144.326 44.1147 143.031 43.5344C141.749 42.9542 140.683 42.0703 139.833 40.8828C138.996 39.6953 138.578 38.1974 138.578 36.3892V5.46023ZM169.476 44.6477C166.67 44.6477 164.207 43.9798 162.088 42.6438C159.983 41.3079 158.337 39.4389 157.149 37.0369C155.975 34.6349 155.388 31.8281 155.388 28.6165C155.388 25.3778 155.975 22.5508 157.149 20.1353C158.337 17.7198 159.983 15.8441 162.088 14.5082C164.207 13.1722 166.67 12.5043 169.476 12.5043C172.283 12.5043 174.739 13.1722 176.844 14.5082C178.963 15.8441 180.609 17.7198 181.783 20.1353C182.971 22.5508 183.565 25.3778 183.565 28.6165C183.565 31.8281 182.971 34.6349 181.783 37.0369C180.609 39.4389 178.963 41.3079 176.844 42.6438C174.739 43.9798 172.283 44.6477 169.476 44.6477ZM169.476 40.3565C171.609 40.3565 173.363 39.81 174.739 38.717C176.116 37.6239 177.134 36.1868 177.796 34.4055C178.457 32.6243 178.788 30.6946 178.788 28.6165C178.788 26.5384 178.457 24.6019 177.796 22.8072C177.134 21.0124 176.116 19.5618 174.739 18.4553C173.363 17.3487 171.609 16.7955 169.476 16.7955C167.344 16.7955 165.59 17.3487 164.214 18.4553C162.837 19.5618 161.818 21.0124 161.157 22.8072C160.496 24.6019 160.165 26.5384 160.165 28.6165C160.165 30.6946 160.496 32.6243 161.157 34.4055C161.818 36.1868 162.837 37.6239 164.214 38.717C165.59 39.81 167.344 40.3565 169.476 40.3565ZM219.518 44.6477C216.604 44.6477 214.094 43.9595 211.989 42.5831C209.884 41.2067 208.264 39.3107 207.131 36.8952C205.997 34.4798 205.43 31.7202 205.43 28.6165C205.43 25.4588 206.011 22.6722 207.171 20.2567C208.345 17.8278 209.978 15.9318 212.07 14.5689C214.175 13.1925 216.631 12.5043 219.438 12.5043C221.624 12.5043 223.594 12.9091 225.348 13.7188C227.102 14.5284 228.539 15.6619 229.659 17.1193C230.779 18.5767 231.474 20.277 231.744 22.2202H226.967C226.603 20.8033 225.793 19.5483 224.538 18.4553C223.297 17.3487 221.624 16.7955 219.518 16.7955C217.656 16.7955 216.023 17.2812 214.62 18.2528C213.23 19.2109 212.144 20.5671 211.361 22.3214C210.592 24.0621 210.207 26.1065 210.207 28.4545C210.207 30.8565 210.585 32.9482 211.341 34.7294C212.11 36.5107 213.19 37.8938 214.58 38.8789C215.983 39.864 217.629 40.3565 219.518 40.3565C220.76 40.3565 221.887 40.1406 222.899 39.7088C223.911 39.277 224.768 38.6562 225.469 37.8466C226.171 37.0369 226.67 36.0653 226.967 34.9318H231.744C231.474 36.767 230.806 38.4201 229.74 39.891C228.688 41.3484 227.291 42.5089 225.55 43.3725C223.823 44.2227 221.813 44.6477 219.518 44.6477ZM251.358 44.6477C248.551 44.6477 246.089 43.9798 243.97 42.6438C241.865 41.3079 240.219 39.4389 239.031 37.0369C237.857 34.6349 237.27 31.8281 237.27 28.6165C237.27 25.3778 237.857 22.5508 239.031 20.1353C240.219 17.7198 241.865 15.8441 243.97 14.5082C246.089 13.1722 248.551 12.5043 251.358 12.5043C254.165 12.5043 256.621 13.1722 258.726 14.5082C260.845 15.8441 262.491 17.7198 263.665 20.1353C264.853 22.5508 265.446 25.3778 265.446 28.6165C265.446 31.8281 264.853 34.6349 263.665 37.0369C262.491 39.4389 260.845 41.3079 258.726 42.6438C256.621 43.9798 254.165 44.6477 251.358 44.6477ZM251.358 40.3565C253.49 40.3565 255.245 39.81 256.621 38.717C257.998 37.6239 259.016 36.1868 259.678 34.4055C260.339 32.6243 260.669 30.6946 260.669 28.6165C260.669 26.5384 260.339 24.6019 259.678 22.8072C259.016 21.0124 257.998 19.5618 256.621 18.4553C255.245 17.3487 253.49 16.7955 251.358 16.7955C249.226 16.7955 247.472 17.3487 246.096 18.4553C244.719 19.5618 243.7 21.0124 243.039 22.8072C242.378 24.6019 242.047 26.5384 242.047 28.6165C242.047 30.6946 242.378 32.6243 243.039 34.4055C243.7 36.1868 244.719 37.6239 246.096 38.717C247.472 39.81 249.226 40.3565 251.358 40.3565ZM284.478 44.6477C281.888 44.6477 279.6 43.9933 277.617 42.6843C275.633 41.3619 274.081 39.4996 272.961 37.0977C271.841 34.6822 271.281 31.8281 271.281 28.5355C271.281 25.2699 271.841 22.4361 272.961 20.0341C274.081 17.6321 275.64 15.7766 277.637 14.4677C279.634 13.1587 281.941 12.5043 284.559 12.5043C286.584 12.5043 288.183 12.8416 289.357 13.5163C290.544 14.1776 291.448 14.9332 292.069 15.7834C292.703 16.62 293.196 17.3082 293.547 17.848H293.951V2.54545H298.728V44H294.113V39.223H293.547C293.196 39.7898 292.696 40.505 292.049 41.3686C291.401 42.2187 290.477 42.9812 289.276 43.6559C288.075 44.3171 286.476 44.6477 284.478 44.6477ZM285.126 40.3565C287.042 40.3565 288.662 39.8572 289.984 38.8587C291.307 37.8466 292.312 36.4499 293 34.6687C293.688 32.8739 294.032 30.8026 294.032 28.4545C294.032 26.1335 293.695 24.1026 293.02 22.3619C292.346 20.6076 291.347 19.2447 290.025 18.2731C288.702 17.288 287.069 16.7955 285.126 16.7955C283.102 16.7955 281.415 17.315 280.066 18.354C278.73 19.3796 277.725 20.7763 277.05 22.544C276.389 24.2983 276.058 26.2685 276.058 28.4545C276.058 30.6676 276.395 32.6783 277.07 34.4865C277.758 36.2812 278.77 37.7116 280.106 38.7777C281.456 39.8303 283.129 40.3565 285.126 40.3565ZM321.176 44.6477C318.18 44.6477 315.596 43.9865 313.424 42.6641C311.265 41.3281 309.598 39.4659 308.424 37.0774C307.264 34.6754 306.683 31.8821 306.683 28.6974C306.683 25.5128 307.264 22.706 308.424 20.277C309.598 17.8345 311.231 15.9318 313.323 14.5689C315.428 13.1925 317.884 12.5043 320.69 12.5043C322.31 12.5043 323.909 12.7741 325.488 13.3139C327.066 13.8537 328.504 14.7308 329.799 15.9453C331.095 17.1463 332.127 18.7386 332.896 20.7223C333.665 22.706 334.05 25.1484 334.05 28.0497V30.0739H310.084V25.9446H329.192C329.192 24.1903 328.841 22.625 328.139 21.2486C327.451 19.8722 326.466 18.7859 325.184 17.9897C323.916 17.1935 322.418 16.7955 320.69 16.7955C318.788 16.7955 317.141 17.2678 315.752 18.2124C314.375 19.1435 313.316 20.358 312.574 21.8558C311.831 23.3537 311.46 24.9595 311.46 26.6733V29.4261C311.46 31.7741 311.865 33.7646 312.675 35.3974C313.498 37.0167 314.638 38.2514 316.096 39.1016C317.553 39.9382 319.247 40.3565 321.176 40.3565C322.431 40.3565 323.565 40.1811 324.577 39.8303C325.602 39.4659 326.486 38.9261 327.228 38.2109C327.971 37.4822 328.544 36.5781 328.949 35.4986L333.564 36.794C333.078 38.3594 332.262 39.7358 331.115 40.9233C329.968 42.0973 328.551 43.0149 326.864 43.6761C325.177 44.3239 323.281 44.6477 321.176 44.6477ZM379.37 19.8722L375.079 21.0866C374.809 20.3714 374.411 19.6765 373.885 19.0018C373.372 18.3136 372.671 17.7468 371.78 17.3015C370.889 16.8562 369.749 16.6335 368.359 16.6335C366.456 16.6335 364.871 17.0721 363.602 17.9492C362.347 18.8129 361.72 19.9126 361.72 21.2486C361.72 22.4361 362.152 23.3739 363.015 24.0621C363.879 24.7504 365.228 25.3239 367.064 25.7827L371.679 26.9162C374.459 27.5909 376.53 28.6232 377.893 30.0131C379.256 31.3896 379.937 33.1641 379.937 35.3366C379.937 37.1179 379.424 38.7102 378.399 40.1136C377.387 41.517 375.97 42.6236 374.148 43.4332C372.326 44.2429 370.208 44.6477 367.792 44.6477C364.621 44.6477 361.997 43.9595 359.918 42.5831C357.84 41.2067 356.525 39.196 355.971 36.5511L360.505 35.4176C360.937 37.0909 361.754 38.3459 362.955 39.1825C364.169 40.0192 365.755 40.4375 367.711 40.4375C369.938 40.4375 371.706 39.9652 373.015 39.0206C374.337 38.0625 374.998 36.9155 374.998 35.5795C374.998 34.5 374.62 33.5959 373.865 32.8672C373.109 32.125 371.949 31.5717 370.383 31.2074L365.201 29.9929C362.354 29.3182 360.263 28.2724 358.927 26.8555C357.604 25.4251 356.943 23.6371 356.943 21.4915C356.943 19.7372 357.435 18.1854 358.421 16.8359C359.419 15.4865 360.775 14.4272 362.489 13.658C364.216 12.8888 366.173 12.5043 368.359 12.5043C371.436 12.5043 373.851 13.179 375.606 14.5284C377.373 15.8778 378.628 17.6591 379.37 19.8722ZM400.649 12.9091V16.9574H384.537V12.9091H400.649ZM389.233 5.46023H394.01V35.0938C394.01 36.4432 394.206 37.4553 394.597 38.13C395.002 38.7912 395.515 39.2365 396.135 39.4659C396.77 39.6818 397.438 39.7898 398.139 39.7898C398.666 39.7898 399.097 39.7628 399.435 39.7088C399.772 39.6413 400.042 39.5874 400.244 39.5469L401.216 43.8381C400.892 43.9595 400.44 44.081 399.86 44.2024C399.28 44.3374 398.544 44.4048 397.654 44.4048C396.304 44.4048 394.982 44.1147 393.686 43.5344C392.404 42.9542 391.338 42.0703 390.488 40.8828C389.651 39.6953 389.233 38.1974 389.233 36.3892V5.46023ZM427.429 31.2884V12.9091H432.206V44H427.429V38.7372H427.105C426.376 40.3161 425.243 41.6587 423.704 42.7653C422.166 43.8583 420.223 44.4048 417.875 44.4048C415.932 44.4048 414.204 43.9798 412.693 43.1296C411.182 42.266 409.994 40.9705 409.131 39.2433C408.267 37.5025 407.835 35.3097 407.835 32.6648V12.9091H412.612V32.3409C412.612 34.608 413.246 36.4162 414.515 37.7656C415.797 39.1151 417.43 39.7898 419.413 39.7898C420.601 39.7898 421.808 39.4862 423.036 38.8789C424.278 38.2717 425.317 37.3406 426.154 36.0856C427.004 34.8306 427.429 33.2315 427.429 31.2884ZM454.8 12.9091V16.9574H438.04V12.9091H454.8ZM443.06 44V8.6179C443.06 6.83665 443.479 5.35227 444.315 4.16477C445.152 2.97727 446.238 2.08664 447.574 1.49289C448.91 0.899145 450.32 0.60227 451.805 0.60227C452.979 0.60227 453.937 0.696731 454.679 0.885652C455.421 1.07457 455.974 1.25 456.339 1.41193L454.962 5.54119C454.719 5.46023 454.382 5.35902 453.95 5.23757C453.532 5.11612 452.979 5.05539 452.29 5.05539C450.712 5.05539 449.571 5.45348 448.87 6.24964C448.181 7.04581 447.837 8.21307 447.837 9.75142V44H443.06ZM475.34 12.9091V16.9574H458.58V12.9091H475.34ZM463.6 44V8.6179C463.6 6.83665 464.019 5.35227 464.855 4.16477C465.692 2.97727 466.778 2.08664 468.114 1.49289C469.45 0.899145 470.86 0.60227 472.345 0.60227C473.519 0.60227 474.477 0.696731 475.219 0.885652C475.961 1.07457 476.514 1.25 476.879 1.41193L475.502 5.54119C475.259 5.46023 474.922 5.35902 474.49 5.23757C474.072 5.11612 473.519 5.05539 472.83 5.05539C471.252 5.05539 470.111 5.45348 469.41 6.24964C468.721 7.04581 468.377 8.21307 468.377 9.75142V44H463.6Z" fill="#AAAAAA"/>
</svg>
