<svg width="311" height="55" viewBox="0 0 311 55" fill="none" xmlns="http://www.w3.org/2000/svg">
<path d="M0.372159 43V11.9091H4.98722V16.6051H5.31108C5.87784 15.0668 6.90341 13.8185 8.38778 12.8604C9.87216 11.9023 11.5455 11.4233 13.4077 11.4233C13.7585 11.4233 14.1971 11.43 14.7234 11.4435C15.2496 11.457 15.6477 11.4773 15.9176 11.5043V16.3622C15.7557 16.3217 15.3846 16.261 14.8043 16.18C14.2376 16.0856 13.6371 16.0384 13.0028 16.0384C11.4915 16.0384 10.142 16.3555 8.95455 16.9897C7.78054 17.6104 6.84943 18.4741 6.16122 19.5806C5.48651 20.6736 5.14915 21.9219 5.14915 23.3253V43H0.372159ZM33.6694 43.6477C30.6737 43.6477 28.0895 42.9865 25.9169 41.6641C23.7578 40.3281 22.0913 38.4659 20.9173 36.0774C19.7567 33.6754 19.1765 30.8821 19.1765 27.6974C19.1765 24.5128 19.7567 21.706 20.9173 19.277C22.0913 16.8345 23.7241 14.9318 25.8157 13.5689C27.9208 12.1925 30.3768 11.5043 33.1836 11.5043C34.8029 11.5043 36.402 11.7741 37.9808 12.3139C39.5597 12.8537 40.9968 13.7308 42.2923 14.9453C43.5877 16.1463 44.62 17.7386 45.3892 19.7223C46.1584 21.706 46.543 24.1484 46.543 27.0497V29.0739H22.5771V24.9446H41.685C41.685 23.1903 41.3342 21.625 40.6325 20.2486C39.9442 18.8722 38.9592 17.7859 37.6772 16.9897C36.4087 16.1935 34.9109 15.7955 33.1836 15.7955C31.2809 15.7955 29.6346 16.2678 28.2447 17.2124C26.8683 18.1435 25.8089 19.358 25.0668 20.8558C24.3246 22.3537 23.9535 23.9595 23.9535 25.6733V28.4261C23.9535 30.7741 24.3583 32.7646 25.168 34.3974C25.9911 36.0167 27.1314 37.2514 28.5888 38.1016C30.0462 38.9382 31.7397 39.3565 33.6694 39.3565C34.9244 39.3565 36.0579 39.1811 37.07 38.8303C38.0955 38.4659 38.9794 37.9261 39.7216 37.2109C40.4638 36.4822 41.0373 35.5781 41.4421 34.4986L46.0572 35.794C45.5714 37.3594 44.755 38.7358 43.608 39.9233C42.4609 41.0973 41.044 42.0149 39.3572 42.6761C37.6705 43.3239 35.7745 43.6477 33.6694 43.6477ZM53.8097 54.6591V11.9091H58.4247V16.848H58.9915C59.3423 16.3082 59.8281 15.62 60.4489 14.7834C61.0831 13.9332 61.9872 13.1776 63.1612 12.5163C64.3487 11.8416 65.9545 11.5043 67.9787 11.5043C70.5966 11.5043 72.9041 12.1587 74.9013 13.4677C76.8984 14.7766 78.457 16.6321 79.5771 19.0341C80.6971 21.4361 81.2571 24.2699 81.2571 27.5355C81.2571 30.8281 80.6971 33.6822 79.5771 36.0977C78.457 38.4996 76.9052 40.3619 74.9215 41.6843C72.9379 42.9933 70.6506 43.6477 68.0597 43.6477C66.0625 43.6477 64.4634 43.3171 63.2624 42.6559C62.0614 41.9812 61.1371 41.2187 60.4893 40.3686C59.8416 39.505 59.3423 38.7898 58.9915 38.223H58.5866V54.6591H53.8097ZM58.5057 27.4545C58.5057 29.8026 58.8498 31.8739 59.538 33.6687C60.2262 35.4499 61.2315 36.8466 62.554 37.8587C63.8764 38.8572 65.4957 39.3565 67.4119 39.3565C69.4091 39.3565 71.0756 38.8303 72.4116 37.7777C73.761 36.7116 74.7731 35.2812 75.4478 33.4865C76.136 31.6783 76.4801 29.6676 76.4801 27.4545C76.4801 25.2685 76.1428 23.2983 75.468 21.544C74.8068 19.7763 73.8015 18.3796 72.4521 17.354C71.1161 16.315 69.4361 15.7955 67.4119 15.7955C65.4688 15.7955 63.8359 16.288 62.5135 17.2731C61.1911 18.2447 60.1925 19.6076 59.5178 21.3619C58.843 23.1026 58.5057 25.1335 58.5057 27.4545ZM101.175 43.6477C98.3679 43.6477 95.9052 42.9798 93.7866 41.6438C91.6815 40.3079 90.0352 38.4389 88.8477 36.0369C87.6737 33.6349 87.0866 30.8281 87.0866 27.6165C87.0866 24.3778 87.6737 21.5508 88.8477 19.1353C90.0352 16.7198 91.6815 14.8441 93.7866 13.5082C95.9052 12.1722 98.3679 11.5043 101.175 11.5043C103.982 11.5043 106.438 12.1722 108.543 13.5082C110.661 14.8441 112.308 16.7198 113.482 19.1353C114.669 21.5508 115.263 24.3778 115.263 27.6165C115.263 30.8281 114.669 33.6349 113.482 36.0369C112.308 38.4389 110.661 40.3079 108.543 41.6438C106.438 42.9798 103.982 43.6477 101.175 43.6477ZM101.175 39.3565C103.307 39.3565 105.061 38.81 106.438 37.717C107.814 36.6239 108.833 35.1868 109.494 33.4055C110.155 31.6243 110.486 29.6946 110.486 27.6165C110.486 25.5384 110.155 23.6019 109.494 21.8072C108.833 20.0124 107.814 18.5618 106.438 17.4553C105.061 16.3487 103.307 15.7955 101.175 15.7955C99.0426 15.7955 97.2884 16.3487 95.9119 17.4553C94.5355 18.5618 93.5167 20.0124 92.8555 21.8072C92.1942 23.6019 91.8636 25.5384 91.8636 27.6165C91.8636 29.6946 92.1942 31.6243 92.8555 33.4055C93.5167 35.1868 94.5355 36.6239 95.9119 37.717C97.2884 38.81 99.0426 39.3565 101.175 39.3565ZM144.578 18.8722L140.286 20.0866C140.016 19.3714 139.618 18.6765 139.092 18.0018C138.579 17.3136 137.878 16.7468 136.987 16.3015C136.096 15.8562 134.956 15.6335 133.566 15.6335C131.663 15.6335 130.078 16.0721 128.809 16.9492C127.554 17.8129 126.927 18.9126 126.927 20.2486C126.927 21.4361 127.359 22.3739 128.222 23.0621C129.086 23.7504 130.435 24.3239 132.271 24.7827L136.886 25.9162C139.666 26.5909 141.737 27.6232 143.1 29.0131C144.463 30.3896 145.144 32.1641 145.144 34.3366C145.144 36.1179 144.631 37.7102 143.606 39.1136C142.594 40.517 141.177 41.6236 139.355 42.4332C137.533 43.2429 135.415 43.6477 132.999 43.6477C129.828 43.6477 127.204 42.9595 125.125 41.5831C123.047 40.2067 121.732 38.196 121.178 35.5511L125.712 34.4176C126.144 36.0909 126.961 37.3459 128.162 38.1825C129.376 39.0192 130.962 39.4375 132.918 39.4375C135.145 39.4375 136.913 38.9652 138.222 38.0206C139.544 37.0625 140.205 35.9155 140.205 34.5795C140.205 33.5 139.828 32.5959 139.072 31.8672C138.316 31.125 137.156 30.5717 135.59 30.2074L130.408 28.9929C127.561 28.3182 125.47 27.2724 124.134 25.8555C122.811 24.4251 122.15 22.6371 122.15 20.4915C122.15 18.7372 122.642 17.1854 123.628 15.8359C124.626 14.4865 125.982 13.4272 127.696 12.658C129.423 11.8888 131.38 11.5043 133.566 11.5043C136.643 11.5043 139.058 12.179 140.813 13.5284C142.58 14.8778 143.835 16.6591 144.578 18.8722ZM152.335 43V11.9091H157.112V43H152.335ZM154.764 6.72727C153.833 6.72727 153.03 6.41016 152.355 5.77592C151.694 5.14169 151.363 4.37926 151.363 3.48864C151.363 2.59801 151.694 1.83558 152.355 1.20135C153.03 0.567116 153.833 0.25 154.764 0.25C155.695 0.25 156.491 0.567116 157.153 1.20135C157.827 1.83558 158.165 2.59801 158.165 3.48864C158.165 4.37926 157.827 5.14169 157.153 5.77592C156.491 6.41016 155.695 6.72727 154.764 6.72727ZM179.383 11.9091V15.9574H163.271V11.9091H179.383ZM167.967 4.46023H172.744V34.0938C172.744 35.4432 172.939 36.4553 173.331 37.13C173.735 37.7912 174.248 38.2365 174.869 38.4659C175.503 38.6818 176.171 38.7898 176.873 38.7898C177.399 38.7898 177.831 38.7628 178.168 38.7088C178.506 38.6413 178.775 38.5874 178.978 38.5469L179.949 42.8381C179.626 42.9595 179.174 43.081 178.593 43.2024C178.013 43.3374 177.278 43.4048 176.387 43.4048C175.038 43.4048 173.715 43.1147 172.42 42.5344C171.138 41.9542 170.072 41.0703 169.222 39.8828C168.385 38.6953 167.967 37.1974 167.967 35.3892V4.46023ZM198.865 43.6477C196.058 43.6477 193.596 42.9798 191.477 41.6438C189.372 40.3079 187.726 38.4389 186.538 36.0369C185.364 33.6349 184.777 30.8281 184.777 27.6165C184.777 24.3778 185.364 21.5508 186.538 19.1353C187.726 16.7198 189.372 14.8441 191.477 13.5082C193.596 12.1722 196.058 11.5043 198.865 11.5043C201.672 11.5043 204.128 12.1722 206.233 13.5082C208.352 14.8441 209.998 16.7198 211.172 19.1353C212.359 21.5508 212.953 24.3778 212.953 27.6165C212.953 30.8281 212.359 33.6349 211.172 36.0369C209.998 38.4389 208.352 40.3079 206.233 41.6438C204.128 42.9798 201.672 43.6477 198.865 43.6477ZM198.865 39.3565C200.997 39.3565 202.752 38.81 204.128 37.717C205.504 36.6239 206.523 35.1868 207.184 33.4055C207.846 31.6243 208.176 29.6946 208.176 27.6165C208.176 25.5384 207.846 23.6019 207.184 21.8072C206.523 20.0124 205.504 18.5618 204.128 17.4553C202.752 16.3487 200.997 15.7955 198.865 15.7955C196.733 15.7955 194.979 16.3487 193.602 17.4553C192.226 18.5618 191.207 20.0124 190.546 21.8072C189.885 23.6019 189.554 25.5384 189.554 27.6165C189.554 29.6946 189.885 31.6243 190.546 33.4055C191.207 35.1868 192.226 36.6239 193.602 37.717C194.979 38.81 196.733 39.3565 198.865 39.3565ZM220.245 43V11.9091H224.86V16.6051H225.184C225.751 15.0668 226.776 13.8185 228.261 12.8604C229.745 11.9023 231.419 11.4233 233.281 11.4233C233.632 11.4233 234.07 11.43 234.596 11.4435C235.123 11.457 235.521 11.4773 235.791 11.5043V16.3622C235.629 16.3217 235.258 16.261 234.677 16.18C234.111 16.0856 233.51 16.0384 232.876 16.0384C231.365 16.0384 230.015 16.3555 228.828 16.9897C227.654 17.6104 226.722 18.4741 226.034 19.5806C225.36 20.6736 225.022 21.9219 225.022 23.3253V43H220.245ZM241.453 43V11.9091H246.23V43H241.453ZM243.882 6.72727C242.951 6.72727 242.148 6.41016 241.473 5.77592C240.812 5.14169 240.482 4.37926 240.482 3.48864C240.482 2.59801 240.812 1.83558 241.473 1.20135C242.148 0.567116 242.951 0.25 243.882 0.25C244.813 0.25 245.609 0.567116 246.271 1.20135C246.945 1.83558 247.283 2.59801 247.283 3.48864C247.283 4.37926 246.945 5.14169 246.271 5.77592C245.609 6.41016 244.813 6.72727 243.882 6.72727ZM268.015 43.6477C265.019 43.6477 262.435 42.9865 260.263 41.6641C258.104 40.3281 256.437 38.4659 255.263 36.0774C254.102 33.6754 253.522 30.8821 253.522 27.6974C253.522 24.5128 254.102 21.706 255.263 19.277C256.437 16.8345 258.07 14.9318 260.161 13.5689C262.267 12.1925 264.722 11.5043 267.529 11.5043C269.149 11.5043 270.748 11.7741 272.327 12.3139C273.905 12.8537 275.343 13.7308 276.638 14.9453C277.933 16.1463 278.966 17.7386 279.735 19.7223C280.504 21.706 280.889 24.1484 280.889 27.0497V29.0739H256.923V24.9446H276.031C276.031 23.1903 275.68 21.625 274.978 20.2486C274.29 18.8722 273.305 17.7859 272.023 16.9897C270.754 16.1935 269.257 15.7955 267.529 15.7955C265.627 15.7955 263.98 16.2678 262.59 17.2124C261.214 18.1435 260.155 19.358 259.412 20.8558C258.67 22.3537 258.299 23.9595 258.299 25.6733V28.4261C258.299 30.7741 258.704 32.7646 259.514 34.3974C260.337 36.0167 261.477 37.2514 262.934 38.1016C264.392 38.9382 266.085 39.3565 268.015 39.3565C269.27 39.3565 270.404 39.1811 271.416 38.8303C272.441 38.4659 273.325 37.9261 274.067 37.2109C274.809 36.4822 275.383 35.5781 275.788 34.4986L280.403 35.794C279.917 37.3594 279.101 38.7358 277.954 39.9233C276.807 41.0973 275.39 42.0149 273.703 42.6761C272.016 43.3239 270.12 43.6477 268.015 43.6477ZM310.178 18.8722L305.887 20.0866C305.617 19.3714 305.219 18.6765 304.693 18.0018C304.18 17.3136 303.478 16.7468 302.588 16.3015C301.697 15.8562 300.557 15.6335 299.167 15.6335C297.264 15.6335 295.678 16.0721 294.41 16.9492C293.155 17.8129 292.528 18.9126 292.528 20.2486C292.528 21.4361 292.959 22.3739 293.823 23.0621C294.687 23.7504 296.036 24.3239 297.871 24.7827L302.486 25.9162C305.266 26.5909 307.338 27.6232 308.7 29.0131C310.063 30.3896 310.745 32.1641 310.745 34.3366C310.745 36.1179 310.232 37.7102 309.206 39.1136C308.194 40.517 306.778 41.6236 304.956 42.4332C303.134 43.2429 301.015 43.6477 298.6 43.6477C295.429 43.6477 292.804 42.9595 290.726 41.5831C288.648 40.2067 287.332 38.196 286.779 35.5511L291.313 34.4176C291.745 36.0909 292.561 37.3459 293.762 38.1825C294.977 39.0192 296.562 39.4375 298.519 39.4375C300.746 39.4375 302.513 38.9652 303.822 38.0206C305.145 37.0625 305.806 35.9155 305.806 34.5795C305.806 33.5 305.428 32.5959 304.672 31.8672C303.917 31.125 302.756 30.5717 301.191 30.2074L296.009 28.9929C293.162 28.3182 291.07 27.2724 289.734 25.8555C288.412 24.4251 287.751 22.6371 287.751 20.4915C287.751 18.7372 288.243 17.1854 289.228 15.8359C290.227 14.4865 291.583 13.4272 293.297 12.658C295.024 11.8888 296.981 11.5043 299.167 11.5043C302.243 11.5043 304.659 12.179 306.413 13.5284C308.181 14.8778 309.436 16.6591 310.178 18.8722Z" fill="#AAAAAA"/>
</svg>
