<svg width="309" height="44" viewBox="0 0 309 44" fill="none" xmlns="http://www.w3.org/2000/svg">
<path d="M23.3949 18.8722L19.1037 20.0866C18.8338 19.3714 18.4357 18.6765 17.9094 18.0018C17.3967 17.3136 16.695 16.7468 15.8043 16.3015C14.9137 15.8562 13.7734 15.6335 12.3835 15.6335C10.4808 15.6335 8.89524 16.0721 7.62678 16.9492C6.3718 17.8129 5.74432 18.9126 5.74432 20.2486C5.74432 21.4361 6.17614 22.3739 7.03977 23.0621C7.90341 23.7504 9.25284 24.3239 11.0881 24.7827L15.7031 25.9162C18.483 26.5909 20.5543 27.6232 21.9173 29.0131C23.2802 30.3896 23.9616 32.1641 23.9616 34.3366C23.9616 36.1179 23.4489 37.7102 22.4233 39.1136C21.4112 40.517 19.9943 41.6236 18.1726 42.4332C16.3509 43.2429 14.2322 43.6477 11.8168 43.6477C8.6456 43.6477 6.02095 42.9595 3.94283 41.5831C1.8647 40.2067 0.549006 38.196 -0.00426125 35.5511L4.52983 34.4176C4.96165 36.0909 5.77805 37.3459 6.97905 38.1825C8.19354 39.0192 9.77912 39.4375 11.7358 39.4375C13.9624 39.4375 15.7301 38.9652 17.0391 38.0206C18.3615 37.0625 19.0227 35.9155 19.0227 34.5795C19.0227 33.5 18.6449 32.5959 17.8892 31.8672C17.1335 31.125 15.973 30.5717 14.4077 30.2074L9.22585 28.9929C6.37855 28.3182 4.28693 27.2724 2.95099 25.8555C1.62855 24.4251 0.96733 22.6371 0.96733 20.4915C0.96733 18.7372 1.45987 17.1854 2.44496 15.8359C3.44354 14.4865 4.79972 13.4272 6.5135 12.658C8.24077 11.8888 10.1974 11.5043 12.3835 11.5043C15.4602 11.5043 17.8757 12.179 19.63 13.5284C21.3977 14.8778 22.6527 16.6591 23.3949 18.8722ZM50.7462 30.2884V11.9091H55.5232V43H50.7462V37.7372H50.4223C49.6936 39.3161 48.5601 40.6587 47.0218 41.7653C45.4834 42.8583 43.5402 43.4048 41.1922 43.4048C39.249 43.4048 37.5218 42.9798 36.0104 42.1296C34.499 41.266 33.3115 39.9705 32.4479 38.2433C31.5843 36.5025 31.1524 34.3097 31.1524 31.6648V11.9091H35.9294V31.3409C35.9294 33.608 36.5637 35.4162 37.8321 36.7656C39.1141 38.1151 40.7469 38.7898 42.7306 38.7898C43.9181 38.7898 45.1258 38.4862 46.3538 37.8789C47.5953 37.2717 48.6343 36.3406 49.471 35.0856C50.3211 33.8306 50.7462 32.2315 50.7462 30.2884ZM64.9203 43V1.54545H69.6973V16.848H70.1021C70.4529 16.3082 70.9387 15.62 71.5595 14.7834C72.1937 13.9332 73.0978 13.1776 74.2718 12.5163C75.4593 11.8416 77.0652 11.5043 79.0893 11.5043C81.7072 11.5043 84.0147 12.1587 86.0119 13.4677C88.0091 14.7766 89.5677 16.6321 90.6877 19.0341C91.8077 21.4361 92.3677 24.2699 92.3677 27.5355C92.3677 30.8281 91.8077 33.6822 90.6877 36.0977C89.5677 38.4996 88.0158 40.3619 86.0321 41.6843C84.0485 42.9933 81.7612 43.6477 79.1703 43.6477C77.1731 43.6477 75.574 43.3171 74.373 42.6559C73.1721 41.9812 72.2477 41.2187 71.6 40.3686C70.9522 39.505 70.4529 38.7898 70.1021 38.223H69.5353V43H64.9203ZM69.6163 27.4545C69.6163 29.8026 69.9604 31.8739 70.6486 33.6687C71.3368 35.4499 72.3422 36.8466 73.6646 37.8587C74.987 38.8572 76.6064 39.3565 78.5226 39.3565C80.5197 39.3565 82.1863 38.8303 83.5222 37.7777C84.8716 36.7116 85.8837 35.2812 86.5584 33.4865C87.2466 31.6783 87.5907 29.6676 87.5907 27.4545C87.5907 25.2685 87.2534 23.2983 86.5787 21.544C85.9174 19.7763 84.9121 18.3796 83.5627 17.354C82.2267 16.315 80.5467 15.7955 78.5226 15.7955C76.5794 15.7955 74.9466 16.288 73.6241 17.2731C72.3017 18.2447 71.3031 19.6076 70.6284 21.3619C69.9537 23.1026 69.6163 25.1335 69.6163 27.4545ZM121.698 18.8722L117.406 20.0866C117.137 19.3714 116.738 18.6765 116.212 18.0018C115.699 17.3136 114.998 16.7468 114.107 16.3015C113.216 15.8562 112.076 15.6335 110.686 15.6335C108.784 15.6335 107.198 16.0721 105.93 16.9492C104.675 17.8129 104.047 18.9126 104.047 20.2486C104.047 21.4361 104.479 22.3739 105.343 23.0621C106.206 23.7504 107.556 24.3239 109.391 24.7827L114.006 25.9162C116.786 26.5909 118.857 27.6232 120.22 29.0131C121.583 30.3896 122.264 32.1641 122.264 34.3366C122.264 36.1179 121.752 37.7102 120.726 39.1136C119.714 40.517 118.297 41.6236 116.475 42.4332C114.654 43.2429 112.535 43.6477 110.119 43.6477C106.948 43.6477 104.324 42.9595 102.246 41.5831C100.167 40.2067 98.8517 38.196 98.2985 35.5511L102.833 34.4176C103.264 36.0909 104.081 37.3459 105.282 38.1825C106.496 39.0192 108.082 39.4375 110.039 39.4375C112.265 39.4375 114.033 38.9652 115.342 38.0206C116.664 37.0625 117.325 35.9155 117.325 34.5795C117.325 33.5 116.948 32.5959 116.192 31.8672C115.436 31.125 114.276 30.5717 112.71 30.2074L107.529 28.9929C104.681 28.3182 102.59 27.2724 101.254 25.8555C99.9313 24.4251 99.2701 22.6371 99.2701 20.4915C99.2701 18.7372 99.7626 17.1854 100.748 15.8359C101.746 14.4865 103.102 13.4272 104.816 12.658C106.544 11.8888 108.5 11.5043 110.686 11.5043C113.763 11.5043 116.178 12.179 117.933 13.5284C119.7 14.8778 120.955 16.6591 121.698 18.8722ZM142.086 43.6477C139.171 43.6477 136.661 42.9595 134.556 41.5831C132.451 40.2067 130.832 38.3107 129.698 35.8952C128.565 33.4798 127.998 30.7202 127.998 27.6165C127.998 24.4588 128.578 21.6722 129.739 19.2567C130.913 16.8278 132.545 14.9318 134.637 13.5689C136.742 12.1925 139.198 11.5043 142.005 11.5043C144.191 11.5043 146.161 11.9091 147.915 12.7188C149.67 13.5284 151.107 14.6619 152.227 16.1193C153.347 17.5767 154.042 19.277 154.312 21.2202H149.535C149.17 19.8033 148.361 18.5483 147.106 17.4553C145.864 16.3487 144.191 15.7955 142.086 15.7955C140.224 15.7955 138.591 16.2812 137.187 17.2528C135.797 18.2109 134.711 19.5671 133.929 21.3214C133.159 23.0621 132.775 25.1065 132.775 27.4545C132.775 29.8565 133.153 31.9482 133.908 33.7294C134.677 35.5107 135.757 36.8938 137.147 37.8789C138.55 38.864 140.197 39.3565 142.086 39.3565C143.327 39.3565 144.454 39.1406 145.466 38.7088C146.478 38.277 147.335 37.6562 148.037 36.8466C148.739 36.0369 149.238 35.0653 149.535 33.9318H154.312C154.042 35.767 153.374 37.4201 152.308 38.891C151.255 40.3484 149.859 41.5089 148.118 42.3725C146.391 43.2227 144.38 43.6477 142.086 43.6477ZM161.295 43V11.9091H165.91V16.6051H166.234C166.801 15.0668 167.826 13.8185 169.311 12.8604C170.795 11.9023 172.468 11.4233 174.331 11.4233C174.681 11.4233 175.12 11.43 175.646 11.4435C176.172 11.457 176.571 11.4773 176.84 11.5043V16.3622C176.679 16.3217 176.307 16.261 175.727 16.18C175.16 16.0856 174.56 16.0384 173.926 16.0384C172.414 16.0384 171.065 16.3555 169.877 16.9897C168.703 17.6104 167.772 18.4741 167.084 19.5806C166.409 20.6736 166.072 21.9219 166.072 23.3253V43H161.295ZM182.503 43V11.9091H187.28V43H182.503ZM184.932 6.72727C184.001 6.72727 183.198 6.41016 182.523 5.77592C181.862 5.14169 181.531 4.37926 181.531 3.48864C181.531 2.59801 181.862 1.83558 182.523 1.20135C183.198 0.567116 184.001 0.25 184.932 0.25C185.863 0.25 186.659 0.567116 187.32 1.20135C187.995 1.83558 188.333 2.59801 188.333 3.48864C188.333 4.37926 187.995 5.14169 187.32 5.77592C186.659 6.41016 185.863 6.72727 184.932 6.72727ZM196.677 43V1.54545H201.454V16.848H201.859C202.21 16.3082 202.696 15.62 203.316 14.7834C203.951 13.9332 204.855 13.1776 206.029 12.5163C207.216 11.8416 208.822 11.5043 210.846 11.5043C213.464 11.5043 215.772 12.1587 217.769 13.4677C219.766 14.7766 221.324 16.6321 222.445 19.0341C223.565 21.4361 224.125 24.2699 224.125 27.5355C224.125 30.8281 223.565 33.6822 222.445 36.0977C221.324 38.4996 219.773 40.3619 217.789 41.6843C215.805 42.9933 213.518 43.6477 210.927 43.6477C208.93 43.6477 207.331 43.3171 206.13 42.6559C204.929 41.9812 204.005 41.2187 203.357 40.3686C202.709 39.505 202.21 38.7898 201.859 38.223H201.292V43H196.677ZM201.373 27.4545C201.373 29.8026 201.717 31.8739 202.405 33.6687C203.094 35.4499 204.099 36.8466 205.421 37.8587C206.744 38.8572 208.363 39.3565 210.279 39.3565C212.277 39.3565 213.943 38.8303 215.279 37.7777C216.628 36.7116 217.641 35.2812 218.315 33.4865C219.003 31.6783 219.348 29.6676 219.348 27.4545C219.348 25.2685 219.01 23.2983 218.335 21.544C217.674 19.7763 216.669 18.3796 215.32 17.354C213.984 16.315 212.304 15.7955 210.279 15.7955C208.336 15.7955 206.703 16.288 205.381 17.2731C204.059 18.2447 203.06 19.6076 202.385 21.3619C201.71 23.1026 201.373 25.1335 201.373 27.4545ZM244.467 43.6477C241.472 43.6477 238.887 42.9865 236.715 41.6641C234.556 40.3281 232.889 38.4659 231.715 36.0774C230.555 33.6754 229.974 30.8821 229.974 27.6974C229.974 24.5128 230.555 21.706 231.715 19.277C232.889 16.8345 234.522 14.9318 236.614 13.5689C238.719 12.1925 241.175 11.5043 243.981 11.5043C245.601 11.5043 247.2 11.7741 248.779 12.3139C250.358 12.8537 251.795 13.7308 253.09 14.9453C254.386 16.1463 255.418 17.7386 256.187 19.7223C256.956 21.706 257.341 24.1484 257.341 27.0497V29.0739H233.375V24.9446H252.483C252.483 23.1903 252.132 21.625 251.43 20.2486C250.742 18.8722 249.757 17.7859 248.475 16.9897C247.207 16.1935 245.709 15.7955 243.981 15.7955C242.079 15.7955 240.432 16.2678 239.043 17.2124C237.666 18.1435 236.607 19.358 235.865 20.8558C235.122 22.3537 234.751 23.9595 234.751 25.6733V28.4261C234.751 30.7741 235.156 32.7646 235.966 34.3974C236.789 36.0167 237.929 37.2514 239.387 38.1016C240.844 38.9382 242.538 39.3565 244.467 39.3565C245.722 39.3565 246.856 39.1811 247.868 38.8303C248.893 38.4659 249.777 37.9261 250.519 37.2109C251.262 36.4822 251.835 35.5781 252.24 34.4986L256.855 35.794C256.369 37.3594 255.553 38.7358 254.406 39.9233C253.259 41.0973 251.842 42.0149 250.155 42.6761C248.468 43.3239 246.572 43.6477 244.467 43.6477ZM264.608 43V11.9091H269.223V16.6051H269.546C270.113 15.0668 271.139 13.8185 272.623 12.8604C274.108 11.9023 275.781 11.4233 277.643 11.4233C277.994 11.4233 278.432 11.43 278.959 11.4435C279.485 11.457 279.883 11.4773 280.153 11.5043V16.3622C279.991 16.3217 279.62 16.261 279.04 16.18C278.473 16.0856 277.872 16.0384 277.238 16.0384C275.727 16.0384 274.377 16.3555 273.19 16.9897C272.016 17.6104 271.085 18.4741 270.397 19.5806C269.722 20.6736 269.384 21.9219 269.384 23.3253V43H264.608ZM307.838 18.8722L303.547 20.0866C303.277 19.3714 302.879 18.6765 302.353 18.0018C301.84 17.3136 301.138 16.7468 300.248 16.3015C299.357 15.8562 298.217 15.6335 296.827 15.6335C294.924 15.6335 293.339 16.0721 292.07 16.9492C290.815 17.8129 290.188 18.9126 290.188 20.2486C290.188 21.4361 290.619 22.3739 291.483 23.0621C292.347 23.7504 293.696 24.3239 295.531 24.7827L300.146 25.9162C302.926 26.5909 304.998 27.6232 306.361 29.0131C307.724 30.3896 308.405 32.1641 308.405 34.3366C308.405 36.1179 307.892 37.7102 306.867 39.1136C305.855 40.517 304.438 41.6236 302.616 42.4332C300.794 43.2429 298.676 43.6477 296.26 43.6477C293.089 43.6477 290.464 42.9595 288.386 41.5831C286.308 40.2067 284.992 38.196 284.439 35.5511L288.973 34.4176C289.405 36.0909 290.221 37.3459 291.422 38.1825C292.637 39.0192 294.222 39.4375 296.179 39.4375C298.406 39.4375 300.173 38.9652 301.482 38.0206C302.805 37.0625 303.466 35.9155 303.466 34.5795C303.466 33.5 303.088 32.5959 302.333 31.8672C301.577 31.125 300.416 30.5717 298.851 30.2074L293.669 28.9929C290.822 28.3182 288.73 27.2724 287.394 25.8555C286.072 24.4251 285.411 22.6371 285.411 20.4915C285.411 18.7372 285.903 17.1854 286.888 15.8359C287.887 14.4865 289.243 13.4272 290.957 12.658C292.684 11.8888 294.641 11.5043 296.827 11.5043C299.904 11.5043 302.319 12.179 304.073 13.5284C305.841 14.8778 307.096 16.6591 307.838 18.8722Z" fill="#AAAAAA"/>
</svg>
