<svg width="18" height="19" viewBox="0 0 18 19" fill="none" xmlns="http://www.w3.org/2000/svg">
<path d="M9.03125 18.3892C7.39844 18.3892 5.90732 17.9911 4.55788 17.195C3.20845 16.3853 2.12891 15.3058 1.31925 13.9563C0.523082 12.6069 0.125 11.1158 0.125 9.48295C0.125 7.83665 0.523082 6.34553 1.31925 5.00959C2.12891 3.66016 3.20845 2.58736 4.55788 1.79119C5.90732 0.981533 7.39844 0.576703 9.03125 0.576703C10.6776 0.576703 12.1687 0.981533 13.5046 1.79119C14.854 2.58736 15.9268 3.66016 16.723 5.00959C17.5327 6.34553 17.9375 7.83665 17.9375 9.48295C17.9375 11.1158 17.5327 12.6069 16.723 13.9563C15.9268 15.3058 14.854 16.3853 13.5046 17.195C12.1687 17.9911 10.6776 18.3892 9.03125 18.3892Z" fill="#AAAAAA"/>
</svg>
